<svg width="1440" height="1507" viewBox="0 0 1440 1507" fill="none" xmlns="http://www.w3.org/2000/svg">
<rect width="1440" height="1507" fill="black"/>
<path d="M234.185 515.31C233.686 515.31 233.187 515.31 232.688 515.31C231.69 515.31 230.941 514.562 230.941 513.563C230.941 511.068 230.941 508.573 230.941 506.327C230.941 505.328 231.69 504.58 232.688 504.58C234.685 504.58 236.431 504.58 238.428 504.58C238.428 503.332 238.428 502.084 238.428 501.086C238.428 499.589 239.176 499.09 240.424 499.09C244.167 499.09 248.16 499.09 251.903 499.09C253.4 499.09 254.149 499.838 254.149 501.336C254.149 502.583 254.149 503.582 254.149 504.829C260.637 504.829 267.125 504.829 273.613 504.829C273.613 503.831 273.613 502.583 273.613 501.585C273.613 500.088 274.113 499.339 275.859 499.339C279.603 499.339 283.346 499.339 286.839 499.339C288.337 499.339 288.836 500.088 288.836 501.336C288.836 502.334 288.836 503.582 288.836 504.58C288.836 504.58 288.836 504.58 288.836 504.829C290.582 504.829 292.579 504.829 294.326 504.829C294.825 504.829 295.324 505.079 295.823 505.328C296.072 505.578 296.322 506.327 296.322 506.826C296.322 509.072 296.322 511.567 296.322 513.813C296.322 515.31 295.573 515.809 294.326 515.809C294.076 515.809 294.076 515.809 293.827 515.809C293.827 516.059 293.827 516.308 293.827 516.807C293.827 527.288 293.827 537.52 293.827 548.001C293.827 549.498 293.327 550.246 291.581 550.246C273.114 550.246 254.648 550.246 236.182 550.246C234.685 550.246 233.936 549.747 233.936 548.001C233.936 537.769 233.936 527.288 233.936 517.057C234.185 515.809 234.185 515.56 234.185 515.31ZM236.431 515.31C236.431 526.041 236.431 536.521 236.431 547.252C254.898 547.252 273.114 547.252 291.581 547.252C291.581 536.521 291.581 526.041 291.581 515.31C290.333 515.31 289.085 515.31 287.837 515.31C287.089 515.31 286.59 514.811 286.59 514.062C286.59 513.314 287.089 512.815 287.837 512.815C289.584 512.815 291.581 512.815 293.327 512.815C293.577 512.815 293.827 512.815 294.076 512.815C294.076 510.569 294.076 508.573 294.076 506.576C273.613 506.576 253.4 506.576 233.187 506.576C233.187 508.573 233.187 510.569 233.187 512.815C235.433 512.815 237.43 512.815 239.426 512.815C240.175 512.815 240.674 513.314 240.674 514.062C240.674 514.811 240.175 515.31 239.426 515.31C238.677 515.31 237.679 515.31 236.431 515.31ZM240.923 504.33C244.666 504.33 248.16 504.33 251.654 504.33C251.654 503.332 251.654 502.084 251.654 501.086C247.91 501.086 244.417 501.086 240.923 501.086C240.923 502.084 240.923 503.332 240.923 504.33ZM286.59 501.086C283.096 501.086 279.602 501.086 276.109 501.086C276.109 502.084 276.109 503.332 276.109 504.33C279.602 504.33 283.096 504.33 286.59 504.33C286.59 503.332 286.59 502.334 286.59 501.086Z" fill="white"/>
<path d="M259.387 531.282C257.141 531.282 255.145 531.282 253.149 531.282C252.4 531.282 251.651 531.033 251.152 530.284C250.903 529.535 250.903 528.787 251.402 528.288C255.644 523.047 259.886 517.557 264.378 512.317C265.127 511.568 265.876 511.319 266.624 511.568C267.373 512.067 267.872 512.816 267.373 513.814C266.624 516.808 265.876 519.803 265.127 523.047C266.125 523.047 266.874 522.798 267.622 522.798C269.12 522.548 270.367 522.298 271.865 522.298C272.863 522.049 273.611 522.298 273.861 523.047C274.36 523.796 274.11 524.544 273.611 525.293C271.116 528.537 268.621 531.532 265.876 534.776C263.879 537.022 262.132 539.517 260.136 541.763C259.886 542.262 259.138 542.512 258.888 542.512C257.641 542.761 256.642 541.763 256.892 540.266C257.141 538.519 258.639 532.031 258.888 530.284C259.886 529.036 259.637 530.672 259.387 531.282ZM260.386 538.02C264.129 533.528 267.622 529.286 271.365 524.544C271.116 524.544 270.866 524.544 270.866 524.544C268.87 524.794 266.874 525.043 264.877 525.293C263.63 525.543 262.631 524.295 262.881 523.047C263.131 522.049 263.38 520.801 263.63 519.803C263.879 518.555 264.378 517.308 264.628 515.81C264.628 515.81 264.628 515.81 264.378 515.81C260.885 520.053 257.391 524.295 253.897 528.787C255.894 528.787 257.641 528.787 259.637 528.787C261.134 528.787 261.883 529.785 261.633 531.282C261.384 533.528 260.885 535.774 260.386 538.02Z" fill="white"/>
</svg>
