<svg width="299" height="340" viewBox="0 0 299 340" fill="none" xmlns="http://www.w3.org/2000/svg">
<rect x="-0.000976562" y="0.848511" width="299" height="339.148" fill="url(#paint0_linear_0_1)"/>
<path d="M75.5852 165.997V135.813H82.1412V147.781H95.5172V135.813H102.073V165.997H95.5172V153.325H82.1412V165.997H75.5852ZM105.677 165.997L117.293 135.813H125.389L137.005 165.997H129.921L127.765 160.057H114.609L112.453 165.997H105.677ZM116.501 154.777H125.873L123.189 147.341C123.072 147.018 122.925 146.637 122.749 146.197C122.602 145.727 122.441 145.214 122.265 144.657C122.089 144.099 121.913 143.557 121.737 143.029C121.59 142.471 121.444 141.973 121.297 141.533H121.033C120.886 142.09 120.696 142.75 120.461 143.513C120.226 144.246 119.992 144.965 119.757 145.669C119.522 146.343 119.332 146.901 119.185 147.341L116.501 154.777ZM140.597 165.997V135.813H156.305C158.476 135.813 160.28 136.223 161.717 137.045C163.184 137.837 164.284 138.966 165.017 140.433C165.78 141.87 166.161 143.586 166.161 145.581C166.161 147.575 165.765 149.321 164.973 150.817C164.21 152.283 163.081 153.427 161.585 154.249C160.089 155.07 158.256 155.481 156.085 155.481H147.153V165.997H140.597ZM147.153 150.113H155.205C156.584 150.113 157.64 149.717 158.373 148.925C159.136 148.133 159.517 147.033 159.517 145.625C159.517 144.657 159.356 143.85 159.033 143.205C158.71 142.559 158.226 142.061 157.581 141.709C156.965 141.357 156.173 141.181 155.205 141.181H147.153V150.113ZM170.546 165.997V135.813H186.254C188.425 135.813 190.229 136.223 191.666 137.045C193.133 137.837 194.233 138.966 194.966 140.433C195.729 141.87 196.11 143.586 196.11 145.581C196.11 147.575 195.714 149.321 194.922 150.817C194.159 152.283 193.03 153.427 191.534 154.249C190.038 155.07 188.205 155.481 186.034 155.481H177.102V165.997H170.546ZM177.102 150.113H185.154C186.533 150.113 187.589 149.717 188.322 148.925C189.085 148.133 189.466 147.033 189.466 145.625C189.466 144.657 189.305 143.85 188.982 143.205C188.659 142.559 188.175 142.061 187.53 141.709C186.914 141.357 186.122 141.181 185.154 141.181H177.102V150.113ZM208.091 165.997V153.853L196.387 135.813H203.999L211.479 147.957H211.699L219.135 135.813H226.307L214.691 153.853V165.997H208.091ZM86.239 204.417C83.7423 204.417 81.6073 203.985 79.834 203.122C78.0607 202.235 76.7073 200.87 75.774 199.027C74.864 197.183 74.409 194.838 74.409 191.992C74.409 187.792 75.4357 184.677 77.489 182.647C79.5657 180.593 82.4823 179.567 86.239 179.567C88.2923 179.567 90.1357 179.917 91.769 180.617C93.4023 181.317 94.6857 182.367 95.619 183.767C96.5757 185.167 97.054 186.928 97.054 189.052H91.804C91.804 187.932 91.5707 186.987 91.104 186.217C90.6607 185.447 90.019 184.863 89.179 184.467C88.3623 184.047 87.4057 183.837 86.309 183.837C84.8157 183.837 83.579 184.128 82.599 184.712C81.6423 185.295 80.9307 186.158 80.464 187.302C80.0207 188.422 79.799 189.798 79.799 191.432V192.517C79.799 194.197 80.0323 195.608 80.499 196.752C80.9657 197.872 81.6657 198.723 82.599 199.307C83.5557 199.867 84.7807 200.147 86.274 200.147C87.4407 200.147 88.4557 199.948 89.319 199.552C90.1823 199.155 90.8473 198.572 91.314 197.802C91.7807 197.032 92.014 196.087 92.014 194.967H97.054C97.054 197.09 96.5873 198.852 95.654 200.252C94.744 201.652 93.4723 202.702 91.839 203.402C90.2057 204.078 88.339 204.417 86.239 204.417ZM101.163 203.997V179.987H106.378V199.552H118.488V203.997H101.163ZM121.842 203.997V179.987H127.057V203.997H121.842ZM132.369 203.997V179.987H151.549V184.257H137.619V189.612H149.939V193.847H137.619V199.692H151.759V203.997H132.369ZM156.261 203.997V179.987H161.056L170.716 192.937C170.856 193.1 171.031 193.333 171.241 193.637C171.451 193.917 171.649 194.197 171.836 194.477C172.022 194.757 172.151 194.978 172.221 195.142H172.396C172.396 194.745 172.396 194.36 172.396 193.987C172.396 193.59 172.396 193.24 172.396 192.937V179.987H177.331V203.997H172.536L162.666 190.732C162.432 190.405 162.187 190.043 161.931 189.647C161.674 189.25 161.487 188.947 161.371 188.737H161.196C161.196 189.087 161.196 189.437 161.196 189.787C161.196 190.113 161.196 190.428 161.196 190.732V203.997H156.261ZM188.562 203.997V184.362H180.862V179.987H201.547V184.362H193.812V203.997H188.562ZM214.414 204.417C213.014 204.417 211.684 204.277 210.424 203.997C209.164 203.717 208.044 203.273 207.064 202.667C206.108 202.037 205.349 201.255 204.789 200.322C204.253 199.365 203.984 198.21 203.984 196.857C203.984 196.74 203.984 196.623 203.984 196.507C203.984 196.367 203.996 196.262 204.019 196.192H209.199C209.176 196.262 209.164 196.355 209.164 196.472C209.164 196.588 209.164 196.693 209.164 196.787C209.164 197.533 209.363 198.163 209.759 198.677C210.179 199.19 210.786 199.575 211.579 199.832C212.373 200.088 213.294 200.217 214.344 200.217C215.021 200.217 215.616 200.182 216.129 200.112C216.666 200.018 217.133 199.902 217.529 199.762C217.949 199.598 218.288 199.412 218.544 199.202C218.824 198.992 219.023 198.747 219.139 198.467C219.279 198.187 219.349 197.872 219.349 197.522C219.349 196.892 219.139 196.378 218.719 195.982C218.323 195.585 217.763 195.247 217.039 194.967C216.339 194.687 215.546 194.43 214.659 194.197C213.773 193.963 212.863 193.73 211.929 193.497C210.996 193.24 210.086 192.937 209.199 192.587C208.313 192.213 207.519 191.77 206.819 191.257C206.119 190.743 205.559 190.09 205.139 189.297C204.719 188.503 204.509 187.547 204.509 186.427C204.509 185.237 204.754 184.21 205.244 183.347C205.758 182.483 206.469 181.772 207.379 181.212C208.289 180.652 209.339 180.243 210.529 179.987C211.719 179.707 213.014 179.567 214.414 179.567C215.721 179.567 216.958 179.707 218.124 179.987C219.291 180.243 220.318 180.663 221.204 181.247C222.091 181.83 222.779 182.565 223.269 183.452C223.783 184.338 224.039 185.388 224.039 186.602V187.022H218.964V186.742C218.964 186.112 218.778 185.575 218.404 185.132C218.031 184.688 217.506 184.338 216.829 184.082C216.153 183.825 215.359 183.697 214.449 183.697C213.469 183.697 212.629 183.79 211.929 183.977C211.253 184.163 210.728 184.443 210.354 184.817C210.004 185.167 209.829 185.587 209.829 186.077C209.829 186.637 210.028 187.103 210.424 187.477C210.844 187.827 211.404 188.142 212.104 188.422C212.828 188.678 213.633 188.912 214.519 189.122C215.406 189.332 216.316 189.565 217.249 189.822C218.183 190.078 219.093 190.382 219.979 190.732C220.866 191.082 221.659 191.525 222.359 192.062C223.059 192.575 223.619 193.217 224.039 193.987C224.459 194.757 224.669 195.678 224.669 196.752C224.669 198.595 224.226 200.077 223.339 201.197C222.453 202.317 221.239 203.133 219.699 203.647C218.159 204.16 216.398 204.417 214.414 204.417Z" fill="white"/>
<path d="M162.226 56.3H172.733V88.5739C172.733 92.1976 171.868 95.3684 170.137 98.0862C168.422 100.804 166.02 102.923 162.93 104.444C159.84 105.948 156.24 106.701 152.131 106.701C148.006 106.701 144.398 105.948 141.309 104.444C138.219 102.923 135.816 100.804 134.102 98.0862C132.387 95.3684 131.529 92.1976 131.529 88.5739V56.3H142.037V87.676C142.037 89.5688 142.449 91.2512 143.274 92.7234C144.115 94.1955 145.296 95.3522 146.817 96.1934C148.338 97.0347 150.109 97.4553 152.131 97.4553C154.17 97.4553 155.941 97.0347 157.446 96.1934C158.966 95.3522 160.139 94.1955 160.964 92.7234C161.805 91.2512 162.226 89.5688 162.226 87.676V56.3ZM181.378 105.997V56.3H200.985C204.738 56.3 207.941 56.9713 210.594 58.3141C213.264 59.6406 215.294 61.5253 216.685 63.9681C218.093 66.3947 218.796 69.25 218.796 72.534C218.796 75.8342 218.084 78.6733 216.661 81.0514C215.237 83.4133 213.175 85.2252 210.473 86.487C207.788 87.7488 204.536 88.3798 200.718 88.3798H187.59V79.9352H199.019C201.025 79.9352 202.692 79.6601 204.018 79.1101C205.345 78.5601 206.332 77.735 206.979 76.635C207.642 75.5349 207.974 74.1679 207.974 72.534C207.974 70.8839 207.642 69.4926 206.979 68.3602C206.332 67.2278 205.337 66.3704 203.994 65.788C202.667 65.1895 200.993 64.8902 198.971 64.8902H191.885V105.997H181.378ZM208.216 83.3809L220.568 105.997H208.969L196.884 83.3809H208.216Z" fill="white"/>
<path d="M103.833 64.508L100.385 68.56L96.5547 64.8665C92.1538 60.6224 84.4717 62.3207 81.9386 68.2141C80.7816 70.906 80.5605 75.0284 83.6179 80.5098C86.466 85.6159 92.128 91.7829 102.206 98.4552C111.429 91.0491 116.32 84.5064 118.552 79.2512C120.945 73.6166 120.29 69.527 118.797 66.875C115.448 60.9247 107.534 60.1591 103.833 64.508Z" stroke="white" stroke-width="10"/>
<defs>
<linearGradient id="paint0_linear_0_1" x1="149.499" y1="0.848511" x2="149.499" y2="339.997" gradientUnits="userSpaceOnUse">
<stop stop-color="#FF9A23"/>
<stop offset="1" stop-color="#D68628"/>
</linearGradient>
</defs>
</svg>
