<svg width="31" height="32" viewBox="0 0 31 32" fill="none" xmlns="http://www.w3.org/2000/svg">
<circle cx="15.499" cy="16.4966" r="13.9672" stroke="#090B21" stroke-width="3.06552"/>
<path d="M21.303 19.6883C21.4549 19.6486 21.6139 19.6591 21.7605 19.7185C21.907 19.7779 22.0348 19.8836 22.128 20.0227C22.2212 20.1617 22.2757 20.328 22.2849 20.5011C22.2941 20.6742 22.2576 20.8464 22.1798 20.9967C21.548 22.2133 20.6389 23.2235 19.544 23.9257C18.4492 24.6279 17.2072 24.9972 15.943 24.9966C14.6789 24.9972 13.4369 24.6279 12.342 23.9257C11.2472 23.2235 10.3381 22.2133 9.70628 20.9967C9.62848 20.8464 9.59193 20.6742 9.60113 20.5011C9.61034 20.328 9.66489 20.1617 9.75807 20.0227C9.85126 19.8836 9.979 19.7779 10.1256 19.7185C10.2722 19.6591 10.4312 19.6486 10.5831 19.6883H10.5911L10.6183 19.6972L10.7255 19.7239L11.1287 19.8216C11.4727 19.9034 11.9527 20.0136 12.4999 20.1221C13.6086 20.3425 14.935 20.5523 15.943 20.5523C16.951 20.5523 18.279 20.3425 19.3862 20.1221C19.9801 20.0033 20.5717 19.8706 21.1606 19.7239L21.2678 19.6972L21.295 19.6901L21.303 19.6865V19.6883ZM10.8087 10.0033C12.0295 7.47182 17.2406 9.78997 12.3319 16.108C5.13833 13.2707 8.57189 8.46734 10.8087 10.0033ZM21.1894 10.0033C23.4262 8.46734 26.8597 13.2707 19.6662 16.108C14.759 9.78997 19.9702 7.47182 21.1894 10.0033Z" fill="#090B21"/>
</svg>
